<svg width="171" height="82" viewBox="0 0 171 82" fill="none" xmlns="http://www.w3.org/2000/svg">
<g clip-path="url(#clip0_62_2985)">
<path d="M37.145 30.2488C35.9202 30.7771 34.5873 31.1574 33.2144 31.3055C34.6398 30.4586 35.7072 29.1208 36.2164 27.543C34.8788 28.3387 33.4136 28.8966 31.8855 29.1921C31.2469 28.5093 30.4745 27.9654 29.6165 27.5943C28.7585 27.2231 27.8332 27.0326 26.8983 27.0347C23.1159 27.0347 20.0739 30.1007 20.0739 33.8631C20.0739 34.3915 20.1379 34.9198 20.242 35.4281C14.5783 35.1319 9.52705 32.4262 6.16887 28.2835C5.55697 29.3286 5.23632 30.5186 5.24026 31.7297C5.24026 34.0993 6.44505 36.1886 8.28224 37.4174C7.19955 37.3748 6.14222 37.0772 5.19624 36.5489V36.6329C5.19624 39.9511 7.54176 42.7009 10.6678 43.3333C10.0808 43.4857 9.47704 43.5637 8.87062 43.5654C8.42633 43.5654 8.00606 43.5214 7.58178 43.4613C8.44634 46.1671 10.964 48.1324 13.9619 48.1964C11.6164 50.0336 8.67849 51.1143 5.48843 51.1143C4.91605 51.1143 4.38771 51.0943 3.83936 51.0303C6.86532 52.9715 10.4556 54.0922 14.3222 54.0922C26.8743 54.0922 33.7428 43.6935 33.7428 34.6676C33.7428 34.3714 33.7428 34.0753 33.7227 33.7791C35.0516 32.8064 36.2164 31.6016 37.145 30.2488Z" fill="white"/>
<path d="M100.21 24.5532H70.7512C70.0427 24.5532 69.4703 25.1256 69.4703 25.8341V55.2932C69.4703 56.0016 70.0427 56.574 70.7512 56.574H100.21C100.919 56.574 101.491 56.0016 101.491 55.2932V25.8341C101.491 25.1256 100.919 24.5532 100.21 24.5532ZM96.5119 33.8993H93.9542C91.9489 33.8993 91.5607 34.8519 91.5607 36.2528V39.3388H96.3478L95.7234 44.17H91.5607V56.574H86.5694V44.174H82.3947V39.3388H86.5694V35.7765C86.5694 31.6418 89.0951 29.3884 92.7855 29.3884C94.5546 29.3884 96.0716 29.5204 96.5159 29.5805V33.8993H96.5119Z" fill="white"/>
<path d="M165.198 24.5532H135.739C135.031 24.5532 134.458 25.1256 134.458 25.8341V55.2932C134.458 56.0016 135.031 56.574 135.739 56.574H165.198C165.907 56.574 166.479 56.0016 166.479 55.2932V25.8341C166.479 25.1256 165.907 24.5532 165.198 24.5532ZM143.956 51.8389H139.205V36.557H143.956V51.8389ZM141.583 34.4677C141.038 34.4677 140.506 34.3061 140.053 34.0036C139.6 33.701 139.247 33.2709 139.039 32.7677C138.83 32.2645 138.776 31.7108 138.882 31.1766C138.988 30.6424 139.25 30.1518 139.636 29.7666C140.021 29.3815 140.511 29.1193 141.046 29.013C141.58 28.9067 142.133 28.9613 142.637 29.1697C143.14 29.3781 143.57 29.7311 143.872 30.1839C144.175 30.6368 144.337 31.1692 144.337 31.7139C144.333 33.2349 143.1 34.4677 141.583 34.4677ZM161.744 51.8389H156.997V44.4061C156.997 42.633 156.965 40.3555 154.527 40.3555C152.058 40.3555 151.677 42.2847 151.677 44.278V51.8389H146.934V36.557H151.489V38.6464H151.553C152.186 37.4456 153.735 36.1768 156.048 36.1768C160.859 36.1768 161.744 39.3428 161.744 43.4575V51.8389Z" fill="white"/>
</g>
<defs>
<clipPath id="clip0_62_2985">
<rect width="170.96" height="80.9866" fill="white" transform="translate(0 0.0703125)"/>
</clipPath>
</defs>
</svg>
